<svg width="58" height="58" viewBox="0 0 58 58" fill="none" xmlns="http://www.w3.org/2000/svg">
<path fill-rule="evenodd" clip-rule="evenodd" d="M29.0001 55.5837C14.3185 55.5837 2.41675 43.6819 2.41675 29.0003C2.41675 14.3188 14.3185 2.41699 29.0001 2.41699C43.6817 2.41699 55.5834 14.3188 55.5834 29.0003C55.5834 43.6819 43.6817 55.5837 29.0001 55.5837ZM46.8822 41.3849C49.3209 37.8703 50.7501 33.6022 50.7501 29.0003C50.7501 16.9881 41.0123 7.25033 29.0001 7.25033C16.9879 7.25033 7.25008 16.9881 7.25008 29.0003C7.25008 33.6022 8.67926 37.8703 11.118 41.3849C13.8378 37.7923 20.229 36.2503 29.0001 36.2503C37.7711 36.2503 44.1624 37.7923 46.8822 41.3849ZM43.4147 45.2881C42.7074 42.7448 37.6261 41.0837 29.0001 41.0837C20.3741 41.0837 15.2928 42.7448 14.5854 45.2881C18.4231 48.6869 23.4706 50.7503 29.0001 50.7503C34.5296 50.7503 39.5771 48.6869 43.4147 45.2881ZM29.0001 14.5003C23.1496 14.5003 19.3334 18.7434 19.3334 24.167C19.3334 32.4498 23.5888 36.2503 29.0001 36.2503C34.3605 36.2503 38.6667 32.5761 38.6667 24.6503C38.6667 19.1441 34.8344 14.5003 29.0001 14.5003ZM24.1667 24.167C24.1667 29.651 26.1441 31.417 29.0001 31.417C31.8462 31.417 33.8334 29.7214 33.8334 24.6503C33.8334 21.6305 31.9379 19.3337 29.0001 19.3337C25.9399 19.3337 24.1667 21.3052 24.1667 24.167Z" fill="#E09494"/>
</svg>
