<svg width="24" height="25" viewBox="0 0 24 25" fill="none" xmlns="http://www.w3.org/2000/svg">
<path fill-rule="evenodd" clip-rule="evenodd" d="M12 4.49805C14.7276 4.49805 17.3357 5.92867 19.7663 8.2792C20.5955 9.08109 21.3457 9.9372 22.0061 10.7937C22.4046 11.3105 22.6875 11.717 22.8425 11.9592L23.1871 12.498L22.8425 13.0368C22.6875 13.2791 22.4046 13.6856 22.0061 14.2024C21.3457 15.0589 20.5955 15.915 19.7663 16.7169C17.3357 19.0674 14.7276 20.498 12 20.498C9.27247 20.498 6.66434 19.0674 4.23373 16.7169C3.40451 15.915 2.65433 15.0589 1.99393 14.2024C1.59543 13.6856 1.3125 13.2791 1.15759 13.0368L0.812988 12.498L1.15759 11.9592C1.3125 11.717 1.59543 11.3105 1.99393 10.7937C2.65433 9.9372 3.40451 9.08109 4.23373 8.2792C6.66434 5.92867 9.27247 4.49805 12 4.49805ZM20.4223 12.0149C19.8176 11.2308 19.1302 10.4462 18.376 9.7169C16.2825 7.69242 14.1051 6.49805 12 6.49805C9.89495 6.49805 7.71751 7.69242 5.62406 9.7169C4.86986 10.4462 4.18241 11.2308 3.57777 12.0149C3.44718 12.1843 3.32651 12.3459 3.21619 12.498C3.32651 12.6502 3.44718 12.8118 3.57777 12.9812C4.18241 13.7653 4.86986 14.5498 5.62406 15.2792C7.71751 17.3037 9.89495 18.498 12 18.498C14.1051 18.498 16.2825 17.3037 18.376 15.2792C19.1302 14.5498 19.8176 13.7653 20.4223 12.9812C20.5529 12.8118 20.6735 12.6502 20.7839 12.498C20.6735 12.3459 20.5529 12.1843 20.4223 12.0149ZM8.00002 12.498C8.00002 14.7072 9.79088 16.498 12 16.498C14.2092 16.498 16 14.7072 16 12.498C16 10.2889 14.2092 8.49805 12 8.49805C9.79088 8.49805 8.00002 10.2889 8.00002 12.498ZM14 12.498C14 13.6026 13.1046 14.498 12 14.498C10.8955 14.498 10 13.6026 10 12.498C10 11.3935 10.8955 10.498 12 10.498C13.1046 10.498 14 11.3935 14 12.498Z" fill="black"/>
</svg>
