<svg width="58" height="58" viewBox="0 0 58 58" fill="none" xmlns="http://www.w3.org/2000/svg">
<path fill-rule="evenodd" clip-rule="evenodd" d="M13.2844 16.9163C12.4913 15.6195 12.0833 14.0232 12.0833 12.083C12.0833 8.25763 14.9599 4.83301 19.3333 4.83301C23.7122 4.83301 27.2436 7.76594 28.9999 12.3581C30.7562 7.76594 34.2876 4.83301 38.6666 4.83301C43.0399 4.83301 45.9166 8.25763 45.9166 12.083C45.9166 14.0232 45.5086 15.6195 44.7154 16.9163H48.3332C51.0026 16.9163 53.1666 19.0803 53.1666 21.7497V26.583C53.1666 29.2524 51.0026 31.4163 48.3332 31.4163V48.333C48.3332 51.0024 46.1693 53.1663 43.4999 53.1663H14.4999C11.8305 53.1663 9.66658 51.0024 9.66658 48.333V31.4163C6.99721 31.4163 4.83325 29.2524 4.83325 26.583V21.7497C4.83325 19.0803 6.99721 16.9163 9.66658 16.9163H13.2844ZM26.5833 21.7497H9.66658V26.583H26.5833V21.7497ZM48.3333 26.583H31.4166V21.7497H48.3333V26.583ZM26.5833 48.333V31.4163H14.4999V48.333H26.5833ZM43.4999 48.333H31.4166V31.4163H43.4999V48.333ZM19.3333 9.66634C17.8341 9.66634 16.9166 10.7586 16.9166 12.083C16.9166 15.1117 19.3743 16.5517 25.2043 16.8547C24.5564 12.3527 22.1418 9.66634 19.3333 9.66634ZM32.6249 16.8547C33.2729 12.3527 35.6874 9.66634 38.496 9.66634C39.9952 9.66634 40.9127 10.7586 40.9127 12.083C40.9127 15.1117 38.4549 16.5517 32.6249 16.8547Z" fill="white"/>
</svg>
